HIERARCHY
ROOT newVegas:Hips
{
	OFFSET 0.000000 96.479958 0.000000
	CHANNELS 6 Xposition Yposition Zposition Xrotation Yrotation Zrotation
	JOINT newVegas:Pelvis
	{
		OFFSET 0.000000 0.000000 0.000000
		CHANNELS 3 Xrotation Yrotation Zrotation
		JOINT newVegas:LeftUpLeg
		{
			OFFSET 18.735201 -5.666702 -4.541200
			CHANNELS 3 Xrotation Yrotation Zrotation
			JOINT newVegas:LeftLeg
			{
				OFFSET -0.021200 -31.938179 0.493100
				CHANNELS 3 Xrotation Yrotation Zrotation
				JOINT newVegas:LeftFoot
				{
					OFFSET 0.021200 -31.938179 -4.336299
					CHANNELS 3 Xrotation Yrotation Zrotation
					JOINT newVegas:LeftToeBase
					{
						OFFSET 0.943001 -26.722000 15.023500
						CHANNELS 3 Xrotation Yrotation Zrotation
						End Site
						{
							OFFSET 0.000000 30.670183 0.000000
						}
					}
				}
				JOINT newVegas:Left_PantLeg
				{
					OFFSET 0.663870 -9.044666 -1.108900
					CHANNELS 3 Xrotation Yrotation Zrotation
					End Site
					{
						OFFSET 1.415995 20.635357 0.000000
					}
				}
			}
		}
		JOINT newVegas:RightUpLeg
		{
			OFFSET -18.735201 -5.666702 -4.541200
			CHANNELS 3 Xrotation Yrotation Zrotation
			JOINT newVegas:RightLeg
			{
				OFFSET 0.018946 -31.938133 0.493100
				CHANNELS 3 Xrotation Yrotation Zrotation
				JOINT newVegas:RightFoot
				{
					OFFSET -0.018946 -31.938126 -4.336299
					CHANNELS 3 Xrotation Yrotation Zrotation
					JOINT newVegas:RightToeBase
					{
						OFFSET -0.943001 -26.722004 15.023500
						CHANNELS 3 Xrotation Yrotation Zrotation
						End Site
						{
							OFFSET 0.000000 30.670187 0.000000
						}
					}
				}
				JOINT newVegas:Right_PantLeg
				{
					OFFSET -0.661674 -9.044716 -1.108900
					CHANNELS 3 Xrotation Yrotation Zrotation
					End Site
					{
						OFFSET -1.415958 20.635269 0.000000
					}
				}
			}
		}
	}
	JOINT newVegas:Spine
	{
		OFFSET 0.000000 10.199997 -0.299500
		CHANNELS 3 Xrotation Yrotation Zrotation
		JOINT newVegas:Spine1
		{
			OFFSET 0.000000 11.900002 -1.516600
			CHANNELS 3 Xrotation Yrotation Zrotation
			JOINT newVegas:Spine2
			{
				OFFSET 0.000000 13.600006 -2.842500
				CHANNELS 3 Xrotation Yrotation Zrotation
				JOINT newVegas:Neck
				{
					OFFSET 0.000000 9.624100 -2.890100
					CHANNELS 3 Xrotation Yrotation Zrotation
					JOINT newVegas:Head
					{
						OFFSET 0.000000 14.068802 -1.351900
						CHANNELS 3 Xrotation Yrotation Zrotation
						JOINT newVegas:Hair_Back
						{
							OFFSET 0.000000 3.231903 -17.524799
							CHANNELS 3 Xrotation Yrotation Zrotation
							End Site
							{
								OFFSET 0.000000 19.849884 0.000000
							}
						}
						JOINT newVegas:Hair_Front
						{
							OFFSET 0.000000 31.260406 4.573800
							CHANNELS 3 Xrotation Yrotation Zrotation
							JOINT newVegas:Hair_Front1
							{
								OFFSET 0.000000 2.284103 11.993300
								CHANNELS 3 Xrotation Yrotation Zrotation
								JOINT newVegas:Hair_Front2
								{
									OFFSET 0.000000 2.284103 11.993300
									CHANNELS 3 Xrotation Yrotation Zrotation
									End Site
									{
										OFFSET 0.000000 12.208862 0.000000
									}
								}
							}
						}
						JOINT newVegas:Jowel
						{
							OFFSET 0.000000 -7.458206 6.864100
							CHANNELS 3 Xrotation Yrotation Zrotation
							End Site
							{
								OFFSET 0.000000 19.849884 0.000000
							}
						}
					}
				}
				JOINT newVegas:LeftShoulder
				{
					OFFSET 15.263000 10.923401 -0.547700
					CHANNELS 3 Xrotation Yrotation Zrotation
					JOINT newVegas:LeftArm
					{
						OFFSET 25.438599 -2.830597 -13.032500
						CHANNELS 3 Xrotation Yrotation Zrotation
						JOINT newVegas:LeftForeArm
						{
							OFFSET 29.960503 0.000000 0.000000
							CHANNELS 3 Xrotation Yrotation Zrotation
							JOINT newVegas:LeftHand
							{
								OFFSET 27.849251 0.000000 0.000000
								CHANNELS 3 Xrotation Yrotation Zrotation
								JOINT newVegas:LeftHandThumb1
								{
									OFFSET 4.487587 -3.305161 6.305391
									CHANNELS 3 Xrotation Yrotation Zrotation
									JOINT newVegas:LeftHandThumb2
									{
										OFFSET 5.480453 -3.164139 3.164143
										CHANNELS 3 Xrotation Yrotation Zrotation
										JOINT newVegas:LeftHandThumb3
										{
											OFFSET 5.159721 -2.978973 2.978967
											CHANNELS 3 Xrotation Yrotation Zrotation
											End Site
											{
												OFFSET 2.494507 5.926697 1.738678
											}
										}
									}
								}
								JOINT newVegas:LeftHandIndex1
								{
									OFFSET 18.578728 -0.527832 5.208049
									CHANNELS 3 Xrotation Yrotation Zrotation
									JOINT newVegas:LeftHandIndex2
									{
										OFFSET 3.192009 0.000000 0.000000
										CHANNELS 3 Xrotation Yrotation Zrotation
										JOINT newVegas:LeftHandIndex3
										{
											OFFSET 3.835129 0.000000 0.000000
											CHANNELS 3 Xrotation Yrotation Zrotation
											End Site
											{
												OFFSET -0.034599 3.816971 0.371180
											}
										}
									}
								}
								JOINT newVegas:LeftHandMiddle1
								{
									OFFSET 18.476105 0.000000 0.000000
									CHANNELS 3 Xrotation Yrotation Zrotation
									JOINT newVegas:LeftHandMiddle2
									{
										OFFSET 3.324875 0.000000 0.000000
										CHANNELS 3 Xrotation Yrotation Zrotation
										JOINT newVegas:LeftHandMiddle3
										{
											OFFSET 4.596550 0.000000 0.000000
											CHANNELS 3 Xrotation Yrotation Zrotation
											End Site
											{
												OFFSET 0.057701 4.578827 0.399218
											}
										}
									}
								}
								JOINT newVegas:LeftHandRing1
								{
									OFFSET 17.732719 0.121887 -4.201567
									CHANNELS 3 Xrotation Yrotation Zrotation
									JOINT newVegas:LeftHandRing2
									{
										OFFSET 2.733170 0.000000 0.000000
										CHANNELS 3 Xrotation Yrotation Zrotation
										JOINT newVegas:LeftHandRing3
										{
											OFFSET 3.178268 0.000000 0.000000
											CHANNELS 3 Xrotation Yrotation Zrotation
											End Site
											{
												OFFSET 0.119102 3.170624 0.185394
											}
										}
									}
								}
								JOINT newVegas:LeftHandPinky1
								{
									OFFSET 15.989624 -0.606689 -7.535461
									CHANNELS 3 Xrotation Yrotation Zrotation
									JOINT newVegas:LeftHandPinky2
									{
										OFFSET 2.538986 0.000000 0.000000
										CHANNELS 3 Xrotation Yrotation Zrotation
										JOINT newVegas:LeftHandPinky3
										{
											OFFSET 2.593102 0.000000 0.000000
											CHANNELS 3 Xrotation Yrotation Zrotation
											End Site
											{
												OFFSET -0.150902 2.584198 0.152708
											}
										}
									}
								}
							}
							JOINT newVegas:Left_Sleeve
							{
								OFFSET 0.267448 -0.649796 0.577675
								CHANNELS 3 Xrotation Yrotation Zrotation
								End Site
								{
									OFFSET 0.000000 15.991241 0.000000
								}
							}
							JOINT newVegas:Left_CapeC
							{
								OFFSET 15.715958 -8.608795 -6.935905
								CHANNELS 3 Xrotation Yrotation Zrotation
								JOINT newVegas:Left_CapeC1
								{
									OFFSET 0.000000 -8.688499 0.000000
									CHANNELS 3 Xrotation Yrotation Zrotation
									End Site
									{
										OFFSET 0.000000 8.688499 0.000000
									}
								}
							}
						}
						JOINT newVegas:Left_CapeB
						{
							OFFSET 26.118385 -8.608795 -7.079235
							CHANNELS 3 Xrotation Yrotation Zrotation
							JOINT newVegas:Left_CapeB1
							{
								OFFSET 0.000000 -8.688499 0.000000
								CHANNELS 3 Xrotation Yrotation Zrotation
								End Site
								{
									OFFSET 0.000000 8.688499 0.000000
								}
							}
						}
						JOINT newVegas:Left_CapeA
						{
							OFFSET 5.115639 -8.608795 -10.395809
							CHANNELS 3 Xrotation Yrotation Zrotation
							JOINT newVegas:Left_CapeA1
							{
								OFFSET 0.000000 -8.688499 0.000000
								CHANNELS 3 Xrotation Yrotation Zrotation
								End Site
								{
									OFFSET 0.000000 8.688499 0.000000
								}
							}
						}
					}
				}
				JOINT newVegas:RightShoulder
				{
					OFFSET -15.263000 10.923401 -0.547700
					CHANNELS 3 Xrotation Yrotation Zrotation
					JOINT newVegas:RightArm
					{
						OFFSET -25.438599 -2.830597 -13.032500
						CHANNELS 3 Xrotation Yrotation Zrotation
						JOINT newVegas:RightForeArm
						{
							OFFSET -29.960503 0.000000 0.000000
							CHANNELS 3 Xrotation Yrotation Zrotation
							JOINT newVegas:RightHand
							{
								OFFSET -27.849251 0.000000 0.000000
								CHANNELS 3 Xrotation Yrotation Zrotation
								JOINT newVegas:RightHandThumb1
								{
									OFFSET -4.487587 -3.305161 6.305391
									CHANNELS 3 Xrotation Yrotation Zrotation
									JOINT newVegas:RightHandThumb2
									{
										OFFSET -5.480453 -3.164139 3.164143
										CHANNELS 3 Xrotation Yrotation Zrotation
										JOINT newVegas:RightHandThumb3
										{
											OFFSET -5.159721 -2.978973 2.978967
											CHANNELS 3 Xrotation Yrotation Zrotation
											End Site
											{
												OFFSET -2.494507 5.926697 1.738678
											}
										}
									}
								}
								JOINT newVegas:RightHandIndex1
								{
									OFFSET -18.578728 -0.527832 5.208049
									CHANNELS 3 Xrotation Yrotation Zrotation
									JOINT newVegas:RightHandIndex2
									{
										OFFSET -3.192009 0.000000 0.000000
										CHANNELS 3 Xrotation Yrotation Zrotation
										JOINT newVegas:RightHandIndex3
										{
											OFFSET -3.835129 0.000000 0.000000
											CHANNELS 3 Xrotation Yrotation Zrotation
											End Site
											{
												OFFSET 0.034599 3.816971 0.371180
											}
										}
									}
								}
								JOINT newVegas:RightHandMiddle1
								{
									OFFSET -18.476105 0.000000 0.000000
									CHANNELS 3 Xrotation Yrotation Zrotation
									JOINT newVegas:RightHandMiddle2
									{
										OFFSET -3.324875 0.000000 0.000000
										CHANNELS 3 Xrotation Yrotation Zrotation
										JOINT newVegas:RightHandMiddle3
										{
											OFFSET -4.596550 0.000000 0.000000
											CHANNELS 3 Xrotation Yrotation Zrotation
											End Site
											{
												OFFSET -0.057701 4.578827 0.399218
											}
										}
									}
								}
								JOINT newVegas:RightHandRing1
								{
									OFFSET -17.732719 0.121887 -4.201567
									CHANNELS 3 Xrotation Yrotation Zrotation
									JOINT newVegas:RightHandRing2
									{
										OFFSET -2.733170 0.000000 0.000000
										CHANNELS 3 Xrotation Yrotation Zrotation
										JOINT newVegas:RightHandRing3
										{
											OFFSET -3.178268 0.000000 0.000000
											CHANNELS 3 Xrotation Yrotation Zrotation
											End Site
											{
												OFFSET -0.119102 3.170624 0.185394
											}
										}
									}
								}
								JOINT newVegas:RightHandPinky1
								{
									OFFSET -15.989624 -0.606689 -7.535461
									CHANNELS 3 Xrotation Yrotation Zrotation
									JOINT newVegas:RightHandPinky2
									{
										OFFSET -2.538986 0.000000 0.000000
										CHANNELS 3 Xrotation Yrotation Zrotation
										JOINT newVegas:RightHandPinky3
										{
											OFFSET -2.593102 0.000000 0.000000
											CHANNELS 3 Xrotation Yrotation Zrotation
											End Site
											{
												OFFSET 0.150902 2.584198 0.152708
											}
										}
									}
								}
							}
							JOINT newVegas:Right_CapeC
							{
								OFFSET -15.715958 -8.608795 -6.935905
								CHANNELS 3 Xrotation Yrotation Zrotation
								JOINT newVegas:Right_CapeC1
								{
									OFFSET 0.000000 -8.688499 0.000000
									CHANNELS 3 Xrotation Yrotation Zrotation
									End Site
									{
										OFFSET 0.000000 8.688499 0.000000
									}
								}
							}
							JOINT newVegas:Right_Sleeve
							{
								OFFSET -0.267448 -0.649994 0.577675
								CHANNELS 3 Xrotation Yrotation Zrotation
								End Site
								{
									OFFSET 0.000000 15.991302 0.000000
								}
							}
						}
						JOINT newVegas:Right_CapeA
						{
							OFFSET -5.115540 -8.608795 -10.395824
							CHANNELS 3 Xrotation Yrotation Zrotation
							JOINT newVegas:Right_CapeA1
							{
								OFFSET 0.000000 -8.688499 0.000000
								CHANNELS 3 Xrotation Yrotation Zrotation
								End Site
								{
									OFFSET 0.000000 8.688499 0.000000
								}
							}
						}
						JOINT newVegas:Right_CapeB
						{
							OFFSET -26.118187 -8.608795 -7.079266
							CHANNELS 3 Xrotation Yrotation Zrotation
							JOINT newVegas:Right_CapeB1
							{
								OFFSET 0.000000 -8.688499 0.000000
								CHANNELS 3 Xrotation Yrotation Zrotation
								End Site
								{
									OFFSET 0.000000 8.688499 0.000000
								}
							}
						}
					}
				}
				JOINT newVegas:Left_Collar
				{
					OFFSET 18.625099 8.655502 8.828100
					CHANNELS 3 Xrotation Yrotation Zrotation
					JOINT newVegas:Left_Collar1
					{
						OFFSET 14.783401 10.540405 -1.259500
						CHANNELS 3 Xrotation Yrotation Zrotation
						End Site
						{
							OFFSET 0.000000 18.199875 0.000000
						}
					}
				}
				JOINT newVegas:Collar_Back
				{
					OFFSET 0.000000 15.630707 -20.132601
					CHANNELS 3 Xrotation Yrotation Zrotation
					End Site
					{
						OFFSET 0.000000 22.523010 0.000000
					}
				}
				JOINT newVegas:Left_Peck
				{
					OFFSET 17.239599 -5.132599 25.482599
					CHANNELS 3 Xrotation Yrotation Zrotation
					End Site
					{
						OFFSET 0.000000 22.523010 0.000000
					}
				}
				JOINT newVegas:Right_Peck
				{
					OFFSET -17.239599 -5.132202 25.482599
					CHANNELS 3 Xrotation Yrotation Zrotation
					End Site
					{
						OFFSET 0.000000 22.523010 0.000000
					}
				}
				JOINT newVegas:Right_Collar
				{
					OFFSET -18.625099 8.655792 8.828100
					CHANNELS 3 Xrotation Yrotation Zrotation
					JOINT newVegas:Right_Collar1
					{
						OFFSET -14.783401 10.539993 -1.259500
						CHANNELS 3 Xrotation Yrotation Zrotation
						End Site
						{
							OFFSET 0.000000 18.199631 0.000000
						}
					}
				}
			}
		}
		JOINT newVegas:Belly
		{
			OFFSET 0.000000 -6.540398 9.014299
			CHANNELS 3 Xrotation Yrotation Zrotation
			End Site
			{
				OFFSET 0.000000 11.566666 0.000000
			}
		}
	}
	JOINT newVegas:ElvisFacialAnim_Joint
	{
		OFFSET 1.000000 -95.330101 -8.825800
		CHANNELS 3 Xrotation Yrotation Zrotation
		End Site
		{
			OFFSET 0.000000 35.315800 0.000000
		}
	}
}
MOTION
Frames: 4
Frame Time: 0.033333
-2.061170 93.636398 299.648010 12.411402 -14.941973 1.956265 -0.000000 0.000000 -0.000000 -50.128411 3.509032 7.639156 19.840311 -0.656323 -3.776221 22.726459 10.039029 -0.291038 -0.000000 -0.000000 -0.000000 -0.000000 -0.000001 -0.000000 -10.631477 3.172964 -10.394046 50.278754 -6.904467 0.929448 20.371266 0.683294 16.261468 -0.000000 -0.000002 0.000001 0.000001 0.000001 0.000001 7.198346 3.136041 -3.538600 17.874943 0.454411 -0.585573 17.871595 0.508703 -0.613758 -0.331318 0.095434 -0.028816 -0.331309 0.095432 -0.028815 0.000001 0.000000 -0.000000 -0.331322 0.095434 -0.028815 -0.331309 0.095434 -0.028813 0.000001 -0.000000 0.000000 0.000001 0.000000 -0.000000 -0.712892 -12.307879 -21.735677 -15.672397 11.051545 -45.809396 -0.000001 -42.849902 -0.000023 21.418317 -2.795701 22.758786 -11.129806 -4.275269 6.500360 17.606406 17.545665 -2.259570 0.000003 0.000000 -0.000004 -4.663002 -1.329312 -39.722273 0.566503 2.515214 -25.382007 -0.000002 -0.000001 -0.000001 -2.409993 -0.284401 -30.576366 0.583701 2.551087 -25.771067 -0.000001 -0.000001 -0.000002 -2.409990 -0.284414 -30.576377 0.583701 2.551101 -25.771058 -0.000005 -0.000001 0.000001 -2.411099 -0.283732 -30.576387 0.583690 2.551087 -25.771055 -0.000003 -0.000003 0.000002 -0.000000 0.000000 0.000000 -0.000000 0.000000 0.000000 -0.000001 0.000000 0.000000 -0.000000 -0.000001 -0.000000 -0.000000 -0.000001 0.000000 -0.000000 -0.000001 -0.000000 -0.000001 -0.000002 0.000001 0.416883 5.483319 19.491569 15.621150 6.790023 56.077619 -0.000015 39.274455 0.000009 27.091744 -3.563696 -17.456157 -2.329848 2.179122 -5.553998 -4.713207 -0.425388 -5.858059 0.000003 -0.000002 -0.000001 -1.914101 -3.846440 60.067634 0.465024 -2.030385 25.797525 -0.000001 0.000000 -0.000002 0.578655 -4.840808 48.233703 1.365026 -3.295899 44.985279 -0.000000 0.000001 0.000002 0.578656 -4.840799 48.233696 1.365035 -3.295904 44.985269 0.000001 -0.000001 -0.000002 0.578657 -4.840841 48.233707 1.365029 -3.295881 44.985262 -0.000002 -0.000000 0.000001 -0.000001 0.000001 -0.000000 -0.000001 0.000001 -0.000000 -0.000001 0.000001 -0.000001 -0.000001 -0.000002 0.000001 -0.000001 -0.000001 0.000002 -0.000001 -0.000002 0.000001 -0.000001 -0.000001 0.000001 -0.000001 -0.000001 0.000000 -0.000001 -0.000001 0.000000 -0.000001 -0.000001 0.000000 -0.000001 -0.000001 0.000000 -0.000001 -0.000001 0.000000 -0.000001 -0.000001 0.000000 -0.000001 -0.000001 0.000000 -0.000000 -0.000000 0.000000 -0.000000 0.000000 -0.000000 
-2.421314 92.420273 310.256805 10.689960 -11.643520 0.885670 -0.000000 -0.000000 0.000000 -42.920284 4.221751 6.463854 23.849212 -2.469748 -8.240849 13.626775 9.960528 4.734652 0.000000 -0.000000 0.000000 -0.000001 0.000000 0.000001 -20.252868 7.919850 -6.657215 64.192946 -7.592009 1.432032 24.985144 0.671504 10.515342 -0.000000 -0.000001 -0.000000 0.000000 0.000001 -0.000001 6.373830 3.377707 -2.797232 15.975608 0.283165 -0.554511 15.972592 0.317180 -0.545420 -0.238546 0.092831 0.051806 -0.238553 0.092831 0.051806 0.000001 0.000000 0.000000 -0.238500 0.092839 0.051805 -0.238627 0.092827 0.051808 -0.000004 -0.000001 -0.000000 0.000001 0.000000 0.000000 -1.735006 -9.804019 -20.058454 -14.325671 8.317696 -48.871199 0.000002 -45.040928 0.000012 17.525374 -3.957295 19.501609 -11.231167 -4.025778 6.669678 17.627786 17.670399 -2.247035 0.000001 -0.000003 -0.000003 -3.835293 0.430778 -43.042834 1.158681 3.499125 -36.633484 -0.000001 0.000002 -0.000001 -2.024359 1.751131 -38.450017 1.179661 3.527095 -36.975909 -0.000002 -0.000001 0.000001 -2.024360 1.751120 -38.450024 1.179658 3.527106 -36.975916 0.000002 0.000001 0.000003 -2.026560 1.752903 -38.449966 1.179667 3.527099 -36.975912 0.000003 -0.000008 -0.000000 0.000002 0.000000 -0.000001 0.000002 0.000000 -0.000001 0.000001 0.000000 -0.000001 0.000000 -0.000002 0.000001 0.000000 -0.000003 0.000001 0.000000 -0.000002 0.000001 0.000001 -0.000002 0.000001 0.647148 2.966344 18.444880 14.538249 7.835275 56.636185 -0.000007 45.180687 0.000007 23.238001 -0.249714 -15.933704 -2.326744 2.180896 -5.555833 -2.601869 -2.700583 -5.463702 -0.000006 -0.000003 0.000001 -1.282642 -4.350473 61.708888 0.943241 -2.811959 37.080995 -0.000002 -0.000003 -0.000000 1.100719 -5.432732 54.612622 1.908572 -3.761010 53.799693 -0.000000 -0.000004 -0.000001 1.100717 -5.432724 54.612611 1.908585 -3.761015 53.799696 -0.000000 -0.000001 -0.000001 1.100727 -5.432763 54.612615 1.908564 -3.761007 53.799686 0.000000 -0.000000 0.000000 -0.000000 -0.000000 0.000000 0.000001 -0.000001 0.000000 -0.000000 -0.000001 0.000000 -0.000000 0.000000 -0.000000 -0.000000 0.000001 0.000000 -0.000000 0.000000 -0.000000 -0.000000 0.000001 -0.000000 0.000001 0.000000 -0.000000 0.000001 0.000000 -0.000000 0.000001 0.000000 -0.000000 0.000001 0.000000 -0.000000 0.000001 0.000000 -0.000000 0.000001 0.000000 -0.000000 0.000001 0.000000 -0.000000 -0.000002 0.000000 -0.000000 -0.000000 -0.000000 0.000000 
-2.487475 90.955849 321.284943 9.064967 -7.731354 -0.176031 -0.000001 0.000000 -0.000000 -41.748794 4.195947 5.782588 42.058806 -5.393813 -9.296084 -3.754876 7.867208 8.006182 0.000000 -0.000000 0.000000 -0.000000 -0.000000 -0.000000 -28.428048 9.039892 -4.686315 69.299618 -4.475362 1.698094 22.675564 0.918764 12.580140 0.000001 0.000001 -0.000000 0.000003 -0.000000 -0.000001 5.568774 3.390467 -1.728262 14.204688 0.072448 -0.470633 14.202236 0.083361 -0.421279 -0.170329 0.064576 0.032721 -0.170345 0.064576 0.032721 -0.000002 0.000000 0.000000 -0.170343 0.064583 0.032720 -0.170332 0.064575 0.032723 -0.000002 0.000000 0.000000 -0.000002 0.000000 0.000000 -0.517145 -5.563301 -18.541756 -12.733556 2.166873 -53.337623 0.000017 -49.362392 0.000032 10.445771 -4.965891 13.770063 -10.958123 -3.862696 6.717226 17.698079 18.048579 -2.217845 0.000003 -0.000004 -0.000003 -1.963322 3.224090 -48.794947 2.590419 4.860919 -56.086262 -0.000000 0.000000 -0.000000 -0.209611 5.004698 -52.033597 2.611677 4.875093 -56.336869 -0.000000 -0.000001 -0.000001 -0.209609 5.004688 -52.033590 2.611689 4.875093 -56.336869 -0.000001 -0.000001 0.000001 -0.212785 5.008794 -52.033307 2.611663 4.875081 -56.336869 0.000002 -0.000003 0.000001 -0.000000 0.000001 -0.000001 -0.000000 0.000001 -0.000001 -0.000001 0.000001 -0.000001 0.000001 -0.000002 0.000001 0.000001 -0.000002 0.000002 0.000001 -0.000002 0.000001 0.000001 -0.000001 0.000001 0.843204 -0.010472 17.583414 13.537528 8.525959 56.729475 0.000002 51.029655 -0.000023 14.717523 2.814985 -11.572450 -2.325365 2.180930 -5.555630 7.429315 -10.370816 -5.993836 -0.000002 -0.000003 -0.000003 -0.032258 -5.023908 61.738708 2.084132 -3.883141 56.432946 0.000001 0.000000 -0.000001 2.491825 -6.375972 63.239328 2.932215 -4.326585 68.238829 0.000002 -0.000001 -0.000001 2.491830 -6.375961 63.239328 2.932235 -4.326590 68.238822 -0.000002 -0.000001 0.000000 2.491838 -6.376003 63.239335 2.932206 -4.326577 68.238829 0.000000 0.000003 -0.000001 0.000000 -0.000000 -0.000000 0.000000 -0.000000 0.000000 0.000000 0.000000 -0.000000 -0.000001 -0.000004 -0.000001 -0.000001 -0.000003 -0.000000 -0.000001 -0.000004 -0.000001 -0.000001 -0.000003 -0.000001 0.000002 0.000000 -0.000000 0.000002 0.000000 -0.000000 0.000002 0.000000 -0.000000 0.000002 0.000000 -0.000000 0.000002 0.000000 -0.000000 0.000002 0.000000 -0.000000 0.000002 0.000000 -0.000000 0.000001 0.000000 0.000000 -0.000001 0.000000 -0.000000 
-2.407290 89.686226 331.967316 7.677957 -3.720115 -0.961772 0.000000 0.000000 -0.000000 -35.223846 3.466486 4.388369 50.612344 -4.998579 -8.828390 -15.491812 4.184486 8.722154 0.000001 -0.000000 0.000000 0.000000 0.000000 -0.000001 -34.952684 9.920359 -3.535893 71.062763 -1.587417 1.884251 21.316539 1.927817 14.029734 -0.000000 -0.000000 0.000001 0.000003 -0.000000 -0.000001 4.861943 3.183665 -0.695666 12.655914 -0.155846 -0.374502 12.654056 -0.166756 -0.288973 -0.091942 0.034857 0.016960 -0.091894 0.034858 0.016958 -0.000001 0.000000 0.000000 -0.091825 0.034857 0.016960 -0.092128 0.034859 0.016959 0.000002 0.000000 0.000000 -0.000001 0.000000 0.000000 0.450950 -0.792132 -16.940676 -11.393626 -5.709511 -56.937218 -0.000000 -54.151130 -0.000004 2.318005 -4.570246 7.551784 -7.759369 -2.585996 6.751287 18.482104 21.954822 -1.985757 0.000003 -0.000005 -0.000002 0.730942 5.876784 -55.235279 4.609883 5.718351 -77.732279 -0.000001 -0.000002 -0.000000 3.398019 7.639963 -67.212634 4.623766 5.721321 -77.871519 0.000001 0.000001 0.000002 3.398018 7.639957 -67.212620 4.623784 5.721316 -77.871526 0.000000 -0.000001 0.000002 3.394091 7.649285 -67.212101 4.623771 5.721315 -77.871526 0.000001 -0.000005 -0.000003 0.000001 -0.000002 -0.000000 0.000001 -0.000002 -0.000000 0.000001 -0.000001 -0.000000 0.000000 0.000002 0.000001 0.000000 0.000001 0.000001 0.000000 0.000002 0.000001 0.000000 0.000003 0.000001 0.944241 -3.362296 16.575652 12.786493 8.972767 56.423916 -0.000013 56.447818 0.000032 5.002830 4.872787 -6.680539 -2.325365 2.180932 -5.555589 16.932099 -18.792176 -3.464230 0.000002 -0.000003 0.000001 1.354264 -5.770023 61.898794 3.682821 -4.554330 77.910656 -0.000003 -0.000001 0.000004 4.309427 -7.023443 72.917262 4.192539 -4.633973 84.268005 0.000000 -0.000002 0.000005 4.309432 -7.023434 72.917262 4.192556 -4.633967 84.268012 0.000000 0.000001 0.000000 4.309454 -7.023482 72.917269 4.192537 -4.633958 84.268026 -0.000001 0.000002 -0.000002 0.000002 0.000001 -0.000001 0.000000 0.000001 -0.000001 0.000002 0.000001 -0.000001 0.000001 0.000000 0.000002 0.000001 0.000001 0.000002 0.000001 0.000000 0.000002 0.000001 0.000001 0.000001 0.000002 -0.000000 0.000000 0.000002 -0.000000 0.000000 0.000002 -0.000000 0.000000 0.000002 -0.000000 0.000000 0.000002 -0.000000 0.000000 0.000002 -0.000000 0.000000 0.000002 -0.000000 0.000000 -0.000001 0.000000 0.000000 0.000000 0.000000 -0.000000 
